<?xml version="1.0" standalone="no"?>
<!DOCTYPE svg PUBLIC "-//W3C//DTD SVG 20010904//EN"
 "http://www.w3.org/TR/2001/REC-SVG-20010904/DTD/svg10.dtd">
<svg version="1.0" xmlns="http://www.w3.org/2000/svg"
 width="600.000000pt" height="600.000000pt" viewBox="0 0 600.000000 600.000000"
 preserveAspectRatio="xMidYMid meet">
<metadata>
Created by potrace 1.11, written by Peter Selinger 2001-2013
</metadata>
<g transform="translate(0.000000,600.000000) scale(0.100000,-0.100000)"
fill="#000000" stroke="none">
<path d="M2689 5946 c-2 -2 -28 -6 -57 -10 -96 -11 -185 -27 -297 -51 -194
-41 -482 -147 -680 -248 -412 -211 -775 -523 -1057 -907 -69 -94 -191 -296
-251 -415 -69 -138 -173 -412 -202 -530 -35 -145 -59 -258 -71 -340 -3 -16 -6
-39 -9 -50 -19 -91 -27 -500 -13 -660 13 -152 43 -324 79 -465 138 -529 394
-976 778 -1361 490 -490 1111 -785 1801 -856 146 -15 615 -7 672 12 7 2 33 6
58 9 25 3 56 8 70 10 13 3 41 8 62 11 109 17 497 132 522 156 6 5 17 9 25 9
33 0 363 173 491 258 186 122 322 233 476 386 132 132 193 202 274 311 25 33
48 62 53 63 4 2 7 10 7 17 0 7 4 15 8 17 19 7 159 244 227 383 120 244 197
472 249 737 23 119 29 156 46 318 8 78 6 509 -3 547 -3 12 -9 53 -12 90 -4 37
-9 70 -10 73 -2 3 -6 26 -10 50 -3 25 -15 86 -26 135 -221 1004 -978 1841
-1959 2165 -83 28 -251 74 -300 83 -14 3 -36 8 -50 11 -27 6 -53 10 -195 31
-80 12 -685 21 -696 11z"/>
</g>
</svg>
